PathFileType	4	(X/Y/Z)	C:\Users\WrightLab\Desktop\Jo\P1_boxCal27.trc
DataRate	CameraRate	NumFrames	NumMarkers	Units	OrigDataRate	OrigDataStartFrame	OrigNumFrames
100.00	100.00	       11	19	mm	100.00	117	       465
Frame#	Time	Headset_Front			Headset_Back			Headset_Left			Headset_Right			Left_Shoulder			Right_Shoulder			Sternum			C7			Left Elbow			Right Elbow			Left Wrist			Right Wrist			Left ASIS			Right ASIS			S2			Left Knee			Right Knee			Left Ankle			Right Ankle			
		X1	Y1	Z1	X2	Y2	Z2	X3	Y3	Z3	X4	Y4	Z4	X5	Y5	Z5	X6	Y6	Z6	X7	Y7	Z7	X8	Y8	Z8	X9	Y9	Z9	X10	Y10	Z10	X11	Y11	Z11	X12	Y12	Z12	X13	Y13	Z13	X14	Y14	Z14	X15	Y15	Z15	X16	Y16	Z16	X17	Y17	Z17	X18	Y18	Z18	X19	Y19	Z19	

117	1.160	-645.05609	1404.99231	297.44763	-742.89648	1503.45081	25.36075	-602.78729	1441.52344	95.86304	-779.76727	1444.72217	237.09244	-565.24237	1272.45203	3.77360	-904.69330	1263.00171	176.55348	-687.67859	1172.91052	218.52315	-774.62262	1268.04114	-13.71405	-512.42621	957.32440	-73.77612	-1012.95758	996.65771	170.81694	-398.16641	772.19086	-18.82310	-1049.16992	773.99469	268.69281	-585.87628	892.40216	207.19278	-779.11823	890.02460	259.67224	-778.15216	886.99261	-73.67323	-515.17804	465.83905	165.90424	-896.17438	449.53046	195.79451	-658.35797	186.67529	-10.57838				
118	1.170	-640.36786	1406.06445	305.21289	-741.63959	1504.67322	35.02471	-600.43695	1442.59387	103.95432	-775.77203	1445.82825	247.14944	-564.74390	1274.10596	10.26249	-901.32172	1264.57776	188.02393	-683.73676	1175.51379	231.74873	-774.70459	1269.88147	-4.07039	-513.74408	959.16608	-68.67892	-1010.70514	999.33972	184.70769	-399.27234	773.74255	-15.78773	-1043.47461	776.76459	286.70825	-582.24609	894.44324	213.12383	-774.30908	890.93127	267.89423	-778.33618	887.90302	-64.80592	-511.74078	471.17743	174.11990	-893.96344	449.92307	199.21506	-654.75903	178.01759	14.69728				
119	1.180	-634.71729	1405.90503	313.13303	-740.13953	1505.95020	44.85759	-597.92566	1442.62366	111.80510	-769.99829	1446.05383	259.26862	-564.35321	1274.63696	16.88943	-897.84821	1265.76001	199.80504	-681.26404	1176.42212	237.12308	-774.33044	1271.06909	5.16953	-514.59534	960.07019	-63.73690	-1007.98108	1001.00995	198.66554	-399.53809	774.24225	-12.79440	-1037.75098	778.83093	304.37091	-579.16315	895.41052	219.17747	-770.58228	892.17535	276.07773	-779.46191	889.24573	-56.81384	-508.70264	475.45810	182.91162	-891.13708	450.34036	202.50330	-649.43127	169.21494	41.52840	-714.03101	130.51639	130.11343	
120	1.190	-629.47882	1406.17224	320.77164	-738.47754	1506.92126	54.41790	-595.73309	1443.44958	118.56765	-765.36932	1446.09131	269.41943	-563.87518	1275.35938	23.83863	-894.40082	1267.59607	210.61044	-677.05359	1175.69800	244.59956	-774.07367	1271.84888	14.56285	-515.25592	960.85944	-58.31284	-1005.07031	1002.86414	212.40166	-399.65567	774.85547	-9.37226	-1031.38708	780.53546	322.45224	-575.14709	896.92181	224.53783	-766.18854	892.10919	284.24597	-779.07574	889.95276	-48.19780	-504.71616	480.27505	191.09215	-888.17865	449.76166	205.83334	-643.75061	160.20648	68.18713	-704.44470	125.99181	157.79462	
121	1.200	-624.20294	1406.17175	328.62326	-736.67279	1507.40381	63.17576	-592.93921	1443.58838	126.61987	-760.16602	1446.16284	278.73944	-562.53650	1275.54663	30.33613	-890.75067	1268.11438	222.00139	-673.14417	1177.48389	251.66379	-773.03748	1272.60571	24.38643	-515.89935	961.36957	-52.27858	-1002.14215	1004.01495	226.75168	-399.83258	774.95648	-5.56203	-1024.58398	782.05725	340.36441	-571.51666	897.81372	230.30693	-762.20679	892.98175	292.67230	-779.40686	890.25653	-39.18865	-501.22461	483.69501	199.61871	-883.93585	448.17169	210.83253	-635.47522	151.18407	94.10145				
122	1.210	-618.88226	1405.54382	336.00406	-734.74194	1507.42920	73.74801	-590.24469	1443.36316	132.70456	-755.32813	1446.16528	288.30872	-561.55481	1275.33533	37.69006	-887.01947	1268.79712	232.73752	-669.85004	1175.12048	256.98520	-771.96649	1272.70801	34.49307	-515.30499	961.46320	-46.91782	-998.86163	1004.67200	240.74109	-399.58041	774.74542	-2.16922	-1017.56769	783.19562	357.60577	-568.93457	898.29236	235.67682	-758.39813	892.69312	300.23123	-778.97266	890.73926	-30.77491	-498.88354	486.48203	206.84361	-881.99188	448.49939	214.45459	-625.48956	143.65352	118.96904	-662.16608	104.76297	224.60330	
123	1.220	-612.68250	1404.87598	343.23395				-587.11334	1443.59729	140.71826	-750.22321	1446.06677	297.33801	-559.89362	1275.22791	43.93143	-882.60138	1268.63953	245.00839	-664.76636	1176.99109	266.30331	-770.70593	1272.98718	43.52335	-515.47803	961.02820	-40.69381	-995.48492	1005.33014	254.43217	-398.99365	774.29852	2.25199	-1010.77246	784.25757	373.90488	-566.14032	898.17780	241.60374	-754.10803	892.34094	307.76208	-778.48199	891.06860	-22.79173	-495.74216	489.47577	215.80843	-879.18164	447.97379	219.26779	-612.63141	135.90564	145.13152	-668.05139	115.31731	240.14024	
124	1.230	-607.01874	1404.22827	350.58829	-729.98059	1507.69714	90.96774	-584.25665	1443.16650	147.73450	-745.52319	1445.70154	306.77762	-558.82391	1274.57800	50.16214	-878.29559	1268.83337	255.42387	-662.25781	1175.43640	274.88754	-768.88123	1273.00635	52.95890	-515.22064	960.46375	-35.24007	-992.01892	1005.32880	268.23520	-398.13217	773.90344	5.58691	-1003.45874	784.70416	390.17184	-563.36139	896.52197	247.38631	-750.12103	891.78979	315.54016	-777.48022	891.82318	-15.59933	-493.34830	490.89490	222.18120	-876.48077	448.00613	223.73718	-599.35675	128.22667	170.05739	-633.13452	103.37739	282.14890	
125	1.240	-601.70490	1404.02002	358.20471	-727.23224	1507.53308	99.87639	-581.20233	1442.60718	155.46107	-740.06226	1445.15955	315.66205	-556.83118	1273.06604	57.41152	-873.84631	1268.29565	266.93289	-655.81946	1174.32068	279.77145	-767.27557	1273.14075	62.63624	-515.08545	960.04590	-29.60473	-987.81921	1004.91559	282.34418	-397.61685	773.14819	9.65555	-995.99432	784.96265	405.74542	-560.51898	895.97650	253.42693	-746.83130	891.23291	324.46149	-776.26794	891.76117	-7.55887	-490.33844	492.30481	230.03308	-874.13940	446.79346	227.83186	-584.90350	120.69365	196.63525	-785.68591	-181.68648	-226.97704	
126	1.250	-596.16998	1403.41113	365.77869	-724.35559	1507.04517	108.68552	-577.18268	1442.32422	161.80508	-735.13159	1444.35461	324.53232	-554.65112	1272.18616	63.87217	-868.99335	1267.76379	277.90659	-651.40448	1171.78882	287.00769	-765.27704	1272.67639	72.00993	-514.38538	958.55951	-23.96498	-984.20074	1004.42145	295.69424	-396.31039	771.49377	14.49001	-987.97467	784.62598	421.04477	-557.11456	894.00690	258.65024	-743.13226	890.56189	332.24438	-775.19843	891.39282	-0.57898	-487.73944	493.48325	236.75092	-871.04120	445.88104	234.02272	-569.25574	115.05218	219.57747	-794.86731	-187.31998	-232.58723	
127	1.260	-590.73157	1402.64661	373.01471	-721.28204	1506.29358	117.94927	-573.68939	1441.29773	169.15605	-730.11066	1444.22351	333.30753	-552.26984	1271.01306	69.94618	-863.96680	1267.42102	288.06152	-647.22729	1172.57007	298.76819	-763.06842	1272.41602	80.77087	-513.48151	957.51160	-18.09134	-979.95300	1004.41052	309.54611	-395.25650	770.57727	18.72403	-981.07495	784.59985	435.92432	-554.25055	891.50568	265.01865	-738.93597	888.70447	340.06308	-773.78717	891.20087	7.38115	-485.63095	493.31955	243.37604	-867.97504	444.54065	238.82863	-552.54480	109.96778	244.01482				
